<svg xmlns="http://www.w3.org/2000/svg" version="1.1" xmlns:xlink="http://www.w3.org/1999/xlink" xmlns:svgjs="http://svgjs.dev/svgjs" width="1000" height="406" viewBox="0 0 1000 406"><g transform="matrix(1,0,0,1,-0.6060602858478319,0.4129910701637982)"><svg viewBox="0 0 396 161" data-background-color="#ffffff" preserveAspectRatio="xMidYMid meet" height="406" width="1000" xmlns="http://www.w3.org/2000/svg" xmlns:xlink="http://www.w3.org/1999/xlink"><defs></defs><g id="tight-bounds" transform="matrix(1,0,0,1,0.24000012680431837,-0.16377232092702343)"><svg viewBox="0 0 395.52 161.32754464185405" height="161.32754464185405" width="395.52"><g><svg viewBox="0 0 567.1100012300687 231.31690948696863" height="161.32754464185405" width="395.52"><g><rect width="4.1648666732688" height="231.31690948696863" x="217.59268221839997" y="0" fill="#6f605b" opacity="1" stroke-width="0" stroke="transparent" fill-opacity="1" class="rect-o-0" data-fill-palette-color="primary" rx="1%" id="o-0" data-palette-color="#6f605b"></rect></g><g transform="matrix(1,0,0,1,232.66034123006875,0.5754151977287592)"><svg viewBox="0 0 334.44966 230.1660790915111" height="230.1660790915111" width="334.44966"><g><svg viewBox="0 0 334.44966 230.1660790915111" height="230.1660790915111" width="334.44966"><g><svg viewBox="0 0 334.44966 198.764" height="198.764" width="334.44966"><g transform="matrix(1,0,0,1,0,0)"><svg width="334.44966" viewBox="-0.34999942779541016 -39 287.9500427246094 167" height="198.764" data-palette-color="#6f605b"><svg></svg><svg></svg><svg></svg><svg></svg><g class="undefined-text-0" data-fill-palette-color="primary" id="text-0"><path d="M30.05-27.35v0c0 1.267-0.29 2.45-0.87 3.55-0.587 1.1-1.38 2.017-2.38 2.75-1 0.733-2.15 1.183-3.45 1.35v0 0.2c2.6 0.533 4.65 1.633 6.15 3.3 1.5 1.667 2.25 3.717 2.25 6.15v0c0 1.867-0.49 3.59-1.47 5.17-0.987 1.587-2.23 2.763-3.73 3.53v0c-0.933 0.467-2.083 0.807-3.45 1.02-1.367 0.22-3.283 0.33-5.75 0.33v0h-14.95v-2.15l4.2-1.05v-29.6l-4.2-1.05v-2.15h16.8c3.5 0 6.2 0.85 8.1 2.55v0c0.867 0.8 1.543 1.733 2.03 2.8 0.48 1.067 0.72 2.167 0.72 3.3zM18-17.35v0h-6.4v14.35h5.5c1.533 0 2.767-0.083 3.7-0.25 0.933-0.167 1.717-0.433 2.35-0.8v0c0.9-0.533 1.633-1.333 2.2-2.4 0.567-1.067 0.85-2.35 0.85-3.85v0c0-1.267-0.217-2.377-0.65-3.33-0.433-0.947-0.983-1.703-1.65-2.27v0c-0.6-0.5-1.367-0.867-2.3-1.1-0.933-0.233-2.133-0.35-3.6-0.35zM18.05-33.1h-6.45v12.85h6.25c2.333 0 4.05-0.583 5.15-1.75v0c0.5-0.533 0.933-1.217 1.3-2.05 0.367-0.833 0.55-1.767 0.55-2.8v0c0-1.033-0.183-1.96-0.55-2.78-0.367-0.813-0.8-1.47-1.3-1.97v0c-1-1-2.65-1.5-4.95-1.5zM36.1-5.85v0c0-2.6 1.217-4.65 3.65-6.15 2.433-1.5 6.467-2.667 12.1-3.5v0c-0.133-1.967-0.317-3.5-0.55-4.6-0.233-1.1-0.533-1.983-0.9-2.65v0c-0.467-0.867-1.117-1.51-1.95-1.93-0.833-0.413-1.733-0.62-2.7-0.62v0c-0.933 0-1.773 0.167-2.52 0.5-0.753 0.333-1.263 0.783-1.53 1.35v0c0.467 0.333 0.81 0.767 1.03 1.3 0.213 0.533 0.32 1.033 0.32 1.5v0c0 0.833-0.273 1.49-0.82 1.97-0.553 0.487-1.23 0.73-2.03 0.73v0c-0.8 0-1.457-0.267-1.97-0.8-0.52-0.533-0.78-1.283-0.78-2.25v0c0-1.4 0.483-2.583 1.45-3.55 0.967-0.967 2.193-1.7 3.68-2.2 1.48-0.5 2.97-0.75 4.47-0.75v0c1.367 0 2.627 0.207 3.78 0.62 1.147 0.42 2.12 1.03 2.92 1.83v0c2.067 2.067 3.1 5.733 3.1 11v0 7.25c0 1.633 0.11 2.767 0.33 3.4 0.213 0.633 0.687 0.95 1.42 0.95v0h2.25v1.5c-2.4 0.967-4.267 1.45-5.6 1.45v0c-1.033 0-1.723-0.377-2.07-1.13-0.353-0.747-0.53-2.187-0.53-4.32v0h-0.2c-1.033 1.7-2.4 3.033-4.1 4-1.7 0.967-3.533 1.45-5.5 1.45v0c-2.1 0-3.75-0.567-4.95-1.7-1.2-1.133-1.8-2.683-1.8-4.65zM44.95-2.4v0c0.933 0 1.91-0.243 2.93-0.73 1.013-0.48 1.87-1.153 2.57-2.02v0c0.533-0.667 0.927-1.46 1.18-2.38 0.247-0.913 0.37-1.987 0.37-3.22v0c0-0.567-0.017-1.127-0.05-1.68-0.033-0.547-0.083-1.07-0.15-1.57v0c-2.7 0.533-4.817 1.107-6.35 1.72-1.533 0.62-2.617 1.353-3.25 2.2-0.633 0.853-0.95 1.913-0.95 3.18v0c0 1.433 0.327 2.54 0.98 3.32 0.647 0.787 1.553 1.18 2.72 1.18zM62.85-2.05l3.85-0.95v-21l-3.85-0.95v-2.05h7.2l1.1 5h0.2c1-1.7 2.35-3.043 4.05-4.03 1.7-0.98 3.517-1.47 5.45-1.47v0c2.767 0 4.817 0.9 6.15 2.7v0c0.667 0.933 1.143 2.24 1.43 3.92 0.28 1.687 0.42 3.963 0.42 6.83v0 11.05l3.85 0.95v2.05h-12.05v-2.05l3.35-0.95v-11.15c0-2.167-0.057-3.783-0.17-4.85-0.12-1.067-0.33-1.9-0.63-2.5v0c-0.4-0.8-0.973-1.41-1.72-1.83-0.753-0.413-1.647-0.62-2.68-0.62v0c-1.933 0-3.6 0.617-5 1.85v0c-1.367 1.233-2.117 3.15-2.25 5.75v0 13.35l3.35 0.95v2.05h-12.05zM112.3 0v-2.05l2.95-0.95-7.7-10.4-3.8 3.2v7.2l3.85 0.95v2.05h-12.55v-2.05l3.85-0.95v-33l-3.85-0.95v-2.05h8.7v26.45l10.65-11.45-3.3-0.95v-2.05h10.75v2.05l-3.65 0.95-7.55 7.75 9.95 13.35 2.65 0.85v2.05z" data-fill-palette-color="primary" fill="#6f605b" opacity="1"></path><path d="M1.55 17v-10.5h29.8v10.5h-2.6l-1.6-7.5h-8.2v29.65l5.3 1.2v2.15h-15.6v-2.15l5.3-1.2v-29.65h-8.25l-1.55 7.5zM49.75 18.4v0c-0.133-0.1-0.293-0.177-0.48-0.23-0.18-0.047-0.353-0.07-0.52-0.07v0c-0.4 0-0.833 0.183-1.3 0.55-0.467 0.367-0.917 0.857-1.35 1.47-0.433 0.62-0.833 1.33-1.2 2.13v0c-0.467 1.133-0.833 2.373-1.1 3.72-0.267 1.353-0.4 2.747-0.4 4.18v0 9.35l5.4 0.95v2.05h-14.1v-2.05l3.85-0.95v-21l-3.85-0.95v-2.05h7.2l1.1 6.6h0.2c0.767-2.267 1.8-4.017 3.1-5.25 1.3-1.233 2.733-1.85 4.3-1.85v0c1.3 0 2.383 0.407 3.25 1.22 0.867 0.82 1.3 1.913 1.3 3.28v0c0 1-0.257 1.79-0.77 2.37-0.52 0.587-1.213 0.88-2.08 0.88v0c-0.867 0-1.55-0.277-2.05-0.83-0.5-0.547-0.75-1.27-0.75-2.17v0c0-0.2 0.017-0.393 0.05-0.58 0.033-0.18 0.1-0.437 0.2-0.77zM57.7 36.65v0c0-2.6 1.217-4.65 3.65-6.15 2.433-1.5 6.467-2.667 12.1-3.5v0c-0.133-1.967-0.317-3.5-0.55-4.6-0.233-1.1-0.533-1.983-0.9-2.65v0c-0.467-0.867-1.117-1.51-1.95-1.93-0.833-0.413-1.733-0.62-2.7-0.62v0c-0.933 0-1.773 0.167-2.52 0.5-0.753 0.333-1.263 0.783-1.53 1.35v0c0.467 0.333 0.81 0.767 1.03 1.3 0.213 0.533 0.32 1.033 0.32 1.5v0c0 0.833-0.277 1.49-0.83 1.97-0.547 0.487-1.22 0.73-2.02 0.73v0c-0.8 0-1.46-0.267-1.98-0.8-0.513-0.533-0.77-1.283-0.77-2.25v0c0-1.4 0.483-2.583 1.45-3.55 0.967-0.967 2.19-1.7 3.67-2.2 1.487-0.5 2.98-0.75 4.48-0.75v0c1.367 0 2.623 0.207 3.77 0.62 1.153 0.42 2.13 1.03 2.93 1.83v0c2.067 2.067 3.1 5.733 3.1 11v0 7.25c0 1.633 0.11 2.767 0.33 3.4 0.213 0.633 0.687 0.95 1.42 0.95v0h2.25v1.5c-2.4 0.967-4.267 1.45-5.6 1.45v0c-1.033 0-1.723-0.377-2.07-1.13-0.353-0.747-0.53-2.187-0.53-4.32v0h-0.2c-1.033 1.7-2.4 3.033-4.1 4-1.7 0.967-3.533 1.45-5.5 1.45v0c-2.1 0-3.75-0.567-4.95-1.7-1.2-1.133-1.8-2.683-1.8-4.65zM66.55 40.1v0c0.933 0 1.907-0.243 2.92-0.73 1.02-0.48 1.88-1.153 2.58-2.02v0c0.533-0.667 0.923-1.46 1.17-2.38 0.253-0.913 0.38-1.987 0.38-3.22v0c0-0.567-0.017-1.127-0.05-1.68-0.033-0.547-0.083-1.07-0.15-1.57v0c-2.7 0.533-4.817 1.107-6.35 1.72-1.533 0.62-2.617 1.353-3.25 2.2-0.633 0.853-0.95 1.913-0.95 3.18v0c0 1.433 0.323 2.54 0.97 3.32 0.653 0.787 1.563 1.18 2.73 1.18zM84.45 40.45l3.85-0.95v-21l-3.85-0.95v-2.05h7.2l1.1 5h0.2c1-1.7 2.35-3.043 4.05-4.03 1.7-0.98 3.517-1.47 5.45-1.47v0c2.767 0 4.817 0.9 6.15 2.7v0c0.667 0.933 1.143 2.24 1.43 3.92 0.28 1.687 0.42 3.963 0.42 6.83v0 11.05l3.85 0.95v2.05h-12.05v-2.05l3.35-0.95v-11.15c0-2.167-0.057-3.783-0.17-4.85-0.12-1.067-0.33-1.9-0.63-2.5v0c-0.4-0.8-0.973-1.41-1.72-1.83-0.753-0.413-1.647-0.62-2.68-0.62v0c-1.933 0-3.6 0.617-5 1.85v0c-1.367 1.233-2.117 3.15-2.25 5.75v0 13.35l3.35 0.95v2.05h-12.05zM127.6 40.7v0c1.867 0 3.393-0.383 4.58-1.15 1.18-0.767 1.77-1.833 1.77-3.2v0c0-1.1-0.367-1.983-1.1-2.65-0.733-0.667-1.64-1.21-2.72-1.63-1.087-0.413-2.18-0.77-3.28-1.07v0c-1.367-0.433-2.683-0.943-3.95-1.53-1.267-0.58-2.3-1.387-3.1-2.42-0.8-1.033-1.2-2.4-1.2-4.1v0c0-2.4 0.877-4.327 2.63-5.78 1.747-1.447 4.187-2.17 7.32-2.17v0c2.667 0 4.777 0.557 6.33 1.67 1.547 1.12 2.32 2.647 2.32 4.58v0c0 1.033-0.233 1.857-0.7 2.47-0.467 0.62-1.133 0.93-2 0.93v0c-0.767 0-1.4-0.233-1.9-0.7-0.5-0.467-0.75-1.067-0.75-1.8v0c0-0.633 0.167-1.21 0.5-1.73 0.333-0.513 0.767-0.887 1.3-1.12v0c-0.5-0.7-1.143-1.21-1.93-1.53-0.78-0.313-1.787-0.47-3.02-0.47v0c-2 0-3.5 0.357-4.5 1.07-1 0.72-1.5 1.78-1.5 3.18v0c0 1 0.243 1.793 0.73 2.38 0.48 0.58 1.187 1.07 2.12 1.47 0.933 0.4 2.083 0.817 3.45 1.25v0c1.133 0.333 2.25 0.707 3.35 1.12 1.1 0.42 2.1 0.93 3 1.53 0.9 0.6 1.617 1.35 2.15 2.25 0.533 0.9 0.8 2.017 0.8 3.35v0c0 1.7-0.467 3.157-1.4 4.37-0.933 1.22-2.217 2.147-3.85 2.78-1.633 0.633-3.517 0.95-5.65 0.95v0c-2.933 0-5.3-0.6-7.1-1.8-1.8-1.2-2.7-2.817-2.7-4.85v0c0-1.067 0.243-1.91 0.73-2.53 0.48-0.613 1.17-0.92 2.07-0.92v0c0.8 0 1.477 0.233 2.03 0.7 0.547 0.467 0.82 1.083 0.82 1.85v0c0 0.633-0.173 1.233-0.52 1.8-0.353 0.567-0.78 0.983-1.28 1.25v0c0.433 0.633 1.21 1.157 2.33 1.57 1.113 0.42 2.387 0.63 3.82 0.63zM142.45 36.65v0c0-2.6 1.217-4.65 3.65-6.15 2.433-1.5 6.467-2.667 12.1-3.5v0c-0.133-1.967-0.317-3.5-0.55-4.6-0.233-1.1-0.533-1.983-0.9-2.65v0c-0.467-0.867-1.117-1.51-1.95-1.93-0.833-0.413-1.733-0.62-2.7-0.62v0c-0.933 0-1.773 0.167-2.52 0.5-0.753 0.333-1.263 0.783-1.53 1.35v0c0.467 0.333 0.81 0.767 1.03 1.3 0.213 0.533 0.32 1.033 0.32 1.5v0c0 0.833-0.273 1.49-0.82 1.97-0.553 0.487-1.23 0.73-2.03 0.73v0c-0.8 0-1.457-0.267-1.97-0.8-0.52-0.533-0.78-1.283-0.78-2.25v0c0-1.4 0.483-2.583 1.45-3.55 0.967-0.967 2.193-1.7 3.68-2.2 1.48-0.5 2.97-0.75 4.47-0.75v0c1.367 0 2.627 0.207 3.78 0.62 1.147 0.42 2.12 1.03 2.92 1.83v0c2.067 2.067 3.1 5.733 3.1 11v0 7.25c0 1.633 0.11 2.767 0.33 3.4 0.213 0.633 0.687 0.95 1.42 0.95v0h2.25v1.5c-2.4 0.967-4.267 1.45-5.6 1.45v0c-1.033 0-1.723-0.377-2.07-1.13-0.353-0.747-0.53-2.187-0.53-4.32v0h-0.2c-1.033 1.7-2.4 3.033-4.1 4-1.7 0.967-3.533 1.45-5.5 1.45v0c-2.1 0-3.75-0.567-4.95-1.7-1.2-1.133-1.8-2.683-1.8-4.65zM151.3 40.1v0c0.933 0 1.91-0.243 2.93-0.73 1.013-0.48 1.87-1.153 2.57-2.02v0c0.533-0.667 0.927-1.46 1.18-2.38 0.247-0.913 0.37-1.987 0.37-3.22v0c0-0.567-0.017-1.127-0.05-1.68-0.033-0.547-0.083-1.07-0.15-1.57v0c-2.7 0.533-4.817 1.107-6.35 1.72-1.533 0.62-2.617 1.353-3.25 2.2-0.633 0.853-0.95 1.913-0.95 3.18v0c0 1.433 0.327 2.54 0.98 3.32 0.647 0.787 1.553 1.18 2.72 1.18zM182.5 15v0c1.933 0 3.61 0.323 5.03 0.97 1.413 0.653 2.513 1.563 3.3 2.73 0.78 1.167 1.17 2.533 1.17 4.1v0c0 1.233-0.257 2.183-0.77 2.85-0.52 0.667-1.297 1-2.33 1v0c-0.933 0-1.673-0.267-2.22-0.8-0.553-0.533-0.83-1.25-0.83-2.15v0c0-0.833 0.227-1.55 0.68-2.15 0.447-0.6 1.053-1.017 1.82-1.25v0c-0.5-0.967-1.21-1.667-2.13-2.1-0.913-0.433-2.053-0.65-3.42-0.65v0c-2.733 0-4.723 0.89-5.97 2.67-1.253 1.787-1.88 4.563-1.88 8.33v0c0 1.633 0.11 3.04 0.33 4.22 0.213 1.187 0.537 2.197 0.97 3.03v0c0.667 1.233 1.55 2.183 2.65 2.85 1.1 0.667 2.4 1 3.9 1v0c1.533 0 3-0.333 4.4-1 1.4-0.667 2.6-1.617 3.6-2.85v0l1.5 1.2c-1.333 2.033-2.867 3.54-4.6 4.52-1.733 0.987-3.767 1.48-6.1 1.48v0c-2.333 0-4.357-0.477-6.07-1.43-1.72-0.947-3.063-2.337-4.03-4.17v0c-1.2-2.233-1.8-4.933-1.8-8.1v0c0-2.9 0.527-5.417 1.58-7.55 1.047-2.133 2.537-3.793 4.47-4.98 1.933-1.18 4.183-1.77 6.75-1.77zM199.5 18h-4.85v-1.8l4.85-0.7 0.65-6.3 4.2-0.6v6.9h6.4v2.5h-6.4v17.85c0 1.133 0.017 1.907 0.05 2.32 0.033 0.42 0.1 0.763 0.2 1.03v0c0.1 0.233 0.283 0.39 0.55 0.47 0.267 0.087 0.7 0.13 1.3 0.13v0h3.5v1.45c-1.6 0.6-3.007 1.043-4.22 1.33-1.22 0.28-2.197 0.42-2.93 0.42v0c-1.5 0-2.467-0.617-2.9-1.85v0c-0.133-0.4-0.233-0.917-0.3-1.55-0.067-0.633-0.1-1.567-0.1-2.8v0zM216.9 39.5v-21l-3.85-0.95v-2.05h8.7v24l3.85 0.95v2.05h-12.55v-2.05zM216.2 7.45v0c0-0.967 0.283-1.733 0.85-2.3 0.567-0.567 1.317-0.85 2.25-0.85v0c0.967 0 1.733 0.283 2.3 0.85 0.567 0.567 0.85 1.333 0.85 2.3v0c0 0.933-0.283 1.683-0.85 2.25-0.567 0.567-1.333 0.85-2.3 0.85v0c-0.967 0-1.723-0.273-2.27-0.82-0.553-0.553-0.83-1.313-0.83-2.28zM253.65 28.75v0c0 2.167-0.323 4.223-0.97 6.17-0.653 1.953-1.563 3.563-2.73 4.83v0c-1 1.1-2.233 1.917-3.7 2.45-1.467 0.533-3.133 0.8-5 0.8v0c-1.833 0-3.467-0.26-4.9-0.78-1.433-0.513-2.65-1.303-3.65-2.37v0c-1.133-1.233-2.007-2.76-2.62-4.58-0.62-1.813-0.93-3.787-0.93-5.92v0c0-2.167 0.317-4.243 0.95-6.23 0.633-1.98 1.55-3.603 2.75-4.87v0c1.067-1.133 2.31-1.96 3.73-2.48 1.413-0.513 3.037-0.77 4.87-0.77v0c1.833 0 3.483 0.257 4.95 0.77 1.467 0.52 2.7 1.313 3.7 2.38v0c1.167 1.233 2.05 2.773 2.65 4.62 0.6 1.853 0.9 3.847 0.9 5.98zM234.5 28.8v0c0 2.033 0.16 3.79 0.48 5.27 0.313 1.487 0.753 2.713 1.32 3.68v0c0.567 0.833 1.243 1.483 2.03 1.95 0.78 0.467 1.803 0.7 3.07 0.7v0c2.3 0 4.017-0.783 5.15-2.35v0c0.6-0.867 1.043-2.067 1.33-3.6 0.28-1.533 0.42-3.3 0.42-5.3v0c0-2-0.157-3.75-0.47-5.25-0.32-1.5-0.763-2.717-1.33-3.65v0c-0.533-0.867-1.207-1.527-2.02-1.98-0.82-0.447-1.863-0.67-3.13-0.67v0c-2.333 0-4.017 0.767-5.05 2.3v0c-1.2 1.867-1.8 4.833-1.8 8.9zM257.75 40.45l3.85-0.95v-21l-3.85-0.95v-2.05h7.2l1.1 5h0.2c1-1.7 2.35-3.043 4.05-4.03 1.7-0.98 3.517-1.47 5.45-1.47v0c2.767 0 4.817 0.9 6.15 2.7v0c0.667 0.933 1.143 2.24 1.43 3.92 0.28 1.687 0.42 3.963 0.42 6.83v0 11.05l3.85 0.95v2.05h-12.05v-2.05l3.35-0.95v-11.15c0-2.167-0.057-3.783-0.17-4.85-0.12-1.067-0.33-1.9-0.63-2.5v0c-0.4-0.8-0.973-1.41-1.72-1.83-0.753-0.413-1.647-0.62-2.68-0.62v0c-1.933 0-3.6 0.617-5 1.85v0c-1.367 1.233-2.117 3.15-2.25 5.75v0 13.35l3.35 0.95v2.05h-12.05z" data-fill-palette-color="primary" fill="#6f605b" opacity="1"></path><path d="M22.5 82.85l4.1-1.05-2.95-8.9h-13.4l-3.05 8.9 4.15 1.05v2.15h-11.7v-2.15l4.1-1.05 12-33.3h4.65l11.85 33.3 4 1.05v2.15h-13.75zM17.3 52.95h-0.2l-5.85 17.05h11.45zM37.85 82.95l3.85-0.95v-21l-3.85-0.95v-2.05h7.2l1.1 5h0.2c1-1.7 2.35-3.043 4.05-4.03 1.7-0.98 3.517-1.47 5.45-1.47v0c2.767 0 4.817 0.9 6.15 2.7v0c0.667 0.933 1.143 2.24 1.43 3.92 0.28 1.687 0.42 3.963 0.42 6.83v0 11.05l3.85 0.95v2.05h-12.05v-2.05l3.35-0.95v-11.15c0-2.167-0.057-3.783-0.17-4.85-0.12-1.067-0.33-1.9-0.63-2.5v0c-0.4-0.8-0.973-1.41-1.72-1.83-0.753-0.413-1.647-0.62-2.68-0.62v0c-1.933 0-3.6 0.617-5 1.85v0c-1.367 1.233-2.117 3.15-2.25 5.75v0 13.35l3.35 0.95v2.05h-12.05zM71.1 71.75v0c0-2.167 0.283-4.233 0.85-6.2 0.567-1.967 1.417-3.567 2.55-4.8v0c0.967-1.067 2.117-1.877 3.45-2.43 1.333-0.547 2.867-0.82 4.6-0.82v0c1.467 0 2.81 0.283 4.03 0.85 1.213 0.567 2.303 1.583 3.27 3.05v0-12.4l-3.85-0.95v-2.05h8.7v36l3.85 0.95v2.05l-7.75 0.5-0.4-4.1c-1.033 1.533-2.2 2.6-3.5 3.2-1.3 0.6-2.75 0.9-4.35 0.9v0c-1.7 0-3.233-0.25-4.6-0.75-1.367-0.5-2.5-1.3-3.4-2.4v0c-1.067-1.3-1.907-2.86-2.52-4.68-0.62-1.813-0.93-3.787-0.93-5.92zM89.85 71.7v0c0-2.033-0.15-3.8-0.45-5.3-0.3-1.5-0.733-2.717-1.3-3.65v0c-0.533-0.867-1.183-1.527-1.95-1.98-0.767-0.447-1.783-0.67-3.05-0.67v0c-1.133 0-2.123 0.2-2.97 0.6-0.853 0.4-1.547 0.983-2.08 1.75v0c-0.6 0.833-1.033 2.023-1.3 3.57-0.267 1.553-0.4 3.33-0.4 5.33v0c0 2 0.15 3.74 0.45 5.22 0.3 1.487 0.733 2.713 1.3 3.68v0c0.567 0.833 1.243 1.483 2.03 1.95 0.78 0.467 1.787 0.7 3.02 0.7v0c1.167 0 2.177-0.193 3.03-0.58 0.847-0.38 1.487-0.953 1.92-1.72v0c0.567-0.933 1-2.143 1.3-3.63 0.3-1.48 0.45-3.237 0.45-5.27zM129.55 51.15l-5.2 1.05v29.8h13.6l1.7-8.65h2.75v11.65h-27.75v-2.15l4.7-1.05v-29.6l-4.7-1.05v-2.15h14.9zM170.75 71.25v0c0 2.167-0.323 4.223-0.97 6.17-0.653 1.953-1.563 3.563-2.73 4.83v0c-1 1.1-2.233 1.917-3.7 2.45-1.467 0.533-3.133 0.8-5 0.8v0c-1.833 0-3.467-0.26-4.9-0.78-1.433-0.513-2.65-1.303-3.65-2.37v0c-1.133-1.233-2.007-2.76-2.62-4.58-0.62-1.813-0.93-3.787-0.93-5.92v0c0-2.167 0.317-4.243 0.95-6.23 0.633-1.98 1.55-3.603 2.75-4.87v0c1.067-1.133 2.31-1.96 3.73-2.48 1.413-0.513 3.037-0.77 4.87-0.77v0c1.833 0 3.483 0.257 4.95 0.77 1.467 0.52 2.7 1.313 3.7 2.38v0c1.167 1.233 2.05 2.773 2.65 4.62 0.6 1.853 0.9 3.847 0.9 5.98zM151.6 71.3v0c0 2.033 0.16 3.79 0.48 5.27 0.313 1.487 0.753 2.713 1.32 3.68v0c0.567 0.833 1.243 1.483 2.03 1.95 0.78 0.467 1.803 0.7 3.07 0.7v0c2.3 0 4.017-0.783 5.15-2.35v0c0.6-0.867 1.043-2.067 1.33-3.6 0.28-1.533 0.42-3.3 0.42-5.3v0c0-2-0.157-3.75-0.47-5.25-0.32-1.5-0.763-2.717-1.33-3.65v0c-0.533-0.867-1.207-1.527-2.02-1.98-0.82-0.447-1.863-0.67-3.13-0.67v0c-2.333 0-4.017 0.767-5.05 2.3v0c-1.2 1.867-1.8 4.833-1.8 8.9zM174.95 79.15v0c0-2.6 1.217-4.65 3.65-6.15 2.433-1.5 6.467-2.667 12.1-3.5v0c-0.133-1.967-0.317-3.5-0.55-4.6-0.233-1.1-0.533-1.983-0.9-2.65v0c-0.467-0.867-1.117-1.51-1.95-1.93-0.833-0.413-1.733-0.62-2.7-0.62v0c-0.933 0-1.773 0.167-2.52 0.5-0.753 0.333-1.263 0.783-1.53 1.35v0c0.467 0.333 0.81 0.767 1.03 1.3 0.213 0.533 0.32 1.033 0.32 1.5v0c0 0.833-0.273 1.49-0.82 1.97-0.553 0.487-1.23 0.73-2.03 0.73v0c-0.8 0-1.457-0.267-1.97-0.8-0.52-0.533-0.78-1.283-0.78-2.25v0c0-1.4 0.483-2.583 1.45-3.55 0.967-0.967 2.193-1.7 3.68-2.2 1.48-0.5 2.97-0.75 4.47-0.75v0c1.367 0 2.627 0.207 3.78 0.62 1.147 0.42 2.12 1.03 2.92 1.83v0c2.067 2.067 3.1 5.733 3.1 11v0 7.25c0 1.633 0.11 2.767 0.33 3.4 0.213 0.633 0.687 0.95 1.42 0.95v0h2.25v1.5c-2.4 0.967-4.267 1.45-5.6 1.45v0c-1.033 0-1.723-0.377-2.07-1.13-0.353-0.747-0.53-2.187-0.53-4.32v0h-0.2c-1.033 1.7-2.4 3.033-4.1 4-1.7 0.967-3.533 1.45-5.5 1.45v0c-2.1 0-3.75-0.567-4.95-1.7-1.2-1.133-1.8-2.683-1.8-4.65zM183.8 82.6v0c0.933 0 1.91-0.243 2.93-0.73 1.013-0.48 1.87-1.153 2.57-2.02v0c0.533-0.667 0.927-1.46 1.18-2.38 0.247-0.913 0.37-1.987 0.37-3.22v0c0-0.567-0.017-1.127-0.05-1.68-0.033-0.547-0.083-1.07-0.15-1.57v0c-2.7 0.533-4.817 1.107-6.35 1.72-1.533 0.62-2.617 1.353-3.25 2.2-0.633 0.853-0.95 1.913-0.95 3.18v0c0 1.433 0.327 2.54 0.98 3.32 0.647 0.787 1.553 1.18 2.72 1.18zM201.7 82.95l3.85-0.95v-21l-3.85-0.95v-2.05h7.2l1.1 5h0.2c1-1.7 2.35-3.043 4.05-4.03 1.7-0.98 3.517-1.47 5.45-1.47v0c2.767 0 4.817 0.9 6.15 2.7v0c0.667 0.933 1.143 2.24 1.43 3.92 0.28 1.687 0.42 3.963 0.42 6.83v0 11.05l3.85 0.95v2.05h-12.05v-2.05l3.35-0.95v-11.15c0-2.167-0.057-3.783-0.17-4.85-0.12-1.067-0.33-1.9-0.63-2.5v0c-0.4-0.8-0.973-1.41-1.72-1.83-0.753-0.413-1.647-0.62-2.68-0.62v0c-1.933 0-3.6 0.617-5 1.85v0c-1.367 1.233-2.117 3.15-2.25 5.75v0 13.35l3.35 0.95v2.05h-12.05z" data-fill-palette-color="primary" fill="#6f605b" opacity="1"></path><path d="M11.6 94.4v16.05h6.2c0.933 0 1.81-0.143 2.63-0.43 0.813-0.28 1.453-0.653 1.92-1.12v0c0.667-0.7 1.233-1.617 1.7-2.75 0.467-1.133 0.7-2.35 0.7-3.65v0c0-1.267-0.223-2.427-0.67-3.48-0.453-1.047-1.03-1.987-1.73-2.82v0c-0.533-0.567-1.217-1.01-2.05-1.33-0.833-0.313-1.733-0.47-2.7-0.47v0zM18.9 113.35v0h-7.3v10.95l4.75 1.05v2.15h-13.95v-2.15l4.2-1.05v-29.6l-4.2-1.05v-2.15h16.55c1.567 0 3 0.207 4.3 0.62 1.3 0.42 2.367 1.013 3.2 1.78v0c1.167 1.033 2.093 2.273 2.78 3.72 0.68 1.453 1.02 2.98 1.02 4.58v0c0 1.633-0.357 3.233-1.07 4.8-0.72 1.567-1.663 2.867-2.83 3.9v0c-0.867 0.767-1.95 1.367-3.25 1.8-1.3 0.433-2.7 0.65-4.2 0.65zM48.4 103.4v0c-0.133-0.1-0.293-0.177-0.48-0.23-0.18-0.047-0.353-0.07-0.52-0.07v0c-0.4 0-0.833 0.183-1.3 0.55-0.467 0.367-0.917 0.857-1.35 1.47-0.433 0.62-0.833 1.33-1.2 2.13v0c-0.467 1.133-0.833 2.373-1.1 3.72-0.267 1.353-0.4 2.747-0.4 4.18v0 9.35l5.4 0.95v2.05h-14.1v-2.05l3.85-0.95v-21l-3.85-0.95v-2.05h7.2l1.1 6.6h0.2c0.767-2.267 1.8-4.017 3.1-5.25 1.3-1.233 2.733-1.85 4.3-1.85v0c1.3 0 2.383 0.407 3.25 1.22 0.867 0.82 1.3 1.913 1.3 3.28v0c0 1-0.257 1.79-0.77 2.37-0.52 0.587-1.213 0.88-2.08 0.88v0c-0.867 0-1.55-0.277-2.05-0.83-0.5-0.547-0.75-1.27-0.75-2.17v0c0-0.2 0.017-0.393 0.05-0.58 0.033-0.18 0.1-0.437 0.2-0.77zM81 113.75v0c0 2.167-0.323 4.223-0.97 6.17-0.653 1.953-1.563 3.563-2.73 4.83v0c-1 1.1-2.233 1.917-3.7 2.45-1.467 0.533-3.133 0.8-5 0.8v0c-1.833 0-3.467-0.26-4.9-0.78-1.433-0.513-2.65-1.303-3.65-2.37v0c-1.133-1.233-2.007-2.76-2.62-4.58-0.62-1.813-0.93-3.787-0.93-5.92v0c0-2.167 0.317-4.243 0.95-6.23 0.633-1.98 1.55-3.603 2.75-4.87v0c1.067-1.133 2.31-1.96 3.73-2.48 1.413-0.513 3.037-0.77 4.87-0.77v0c1.833 0 3.483 0.257 4.95 0.77 1.467 0.52 2.7 1.313 3.7 2.38v0c1.167 1.233 2.05 2.773 2.65 4.62 0.6 1.853 0.9 3.847 0.9 5.98zM61.85 113.8v0c0 2.033 0.16 3.79 0.48 5.27 0.313 1.487 0.753 2.713 1.32 3.68v0c0.567 0.833 1.243 1.483 2.03 1.95 0.78 0.467 1.803 0.7 3.07 0.7v0c2.3 0 4.017-0.783 5.15-2.35v0c0.6-0.867 1.043-2.067 1.33-3.6 0.28-1.533 0.42-3.3 0.42-5.3v0c0-2-0.157-3.75-0.47-5.25-0.32-1.5-0.763-2.717-1.33-3.65v0c-0.533-0.867-1.207-1.527-2.02-1.98-0.82-0.447-1.863-0.67-3.13-0.67v0c-2.333 0-4.017 0.767-5.05 2.3v0c-1.2 1.867-1.8 4.833-1.8 8.9zM98.4 100v0c1.933 0 3.61 0.323 5.03 0.97 1.413 0.653 2.513 1.563 3.3 2.73 0.78 1.167 1.17 2.533 1.17 4.1v0c0 1.233-0.257 2.183-0.77 2.85-0.52 0.667-1.297 1-2.33 1v0c-0.933 0-1.673-0.267-2.22-0.8-0.553-0.533-0.83-1.25-0.83-2.15v0c0-0.833 0.227-1.55 0.68-2.15 0.447-0.6 1.053-1.017 1.82-1.25v0c-0.5-0.967-1.207-1.667-2.12-2.1-0.92-0.433-2.063-0.65-3.43-0.65v0c-2.733 0-4.723 0.89-5.97 2.67-1.253 1.787-1.88 4.563-1.88 8.33v0c0 1.633 0.11 3.04 0.33 4.22 0.213 1.187 0.537 2.197 0.97 3.03v0c0.667 1.233 1.55 2.183 2.65 2.85 1.1 0.667 2.4 1 3.9 1v0c1.533 0 3-0.333 4.4-1 1.4-0.667 2.6-1.617 3.6-2.85v0l1.5 1.2c-1.333 2.033-2.867 3.54-4.6 4.52-1.733 0.987-3.767 1.48-6.1 1.48v0c-2.333 0-4.357-0.477-6.07-1.43-1.72-0.947-3.063-2.337-4.03-4.17v0c-1.2-2.233-1.8-4.933-1.8-8.1v0c0-2.9 0.527-5.417 1.58-7.55 1.047-2.133 2.537-3.793 4.47-4.98 1.933-1.18 4.183-1.77 6.75-1.77zM134.95 114.3v0h-17.45c0 2.433 0.333 4.45 1 6.05v0c0.667 1.533 1.617 2.633 2.85 3.3 1.233 0.667 2.567 1 4 1v0c1.567 0 3-0.327 4.3-0.98 1.3-0.647 2.467-1.537 3.5-2.67v0l1.6 1.2c-1.167 1.6-2.583 2.967-4.25 4.1-1.667 1.133-3.817 1.7-6.45 1.7v0c-2.3 0-4.333-0.493-6.1-1.48-1.767-0.98-3.117-2.42-4.05-4.32v0c-0.5-1.033-0.867-2.183-1.1-3.45-0.233-1.267-0.35-2.617-0.35-4.05v0c0-4.667 1.077-8.283 3.23-10.85 2.147-2.567 5.07-3.85 8.77-3.85v0c3.4 0 6.027 1.057 7.88 3.17 1.847 2.12 2.77 5.047 2.77 8.78v0c0 0.333-0.007 0.64-0.02 0.92-0.02 0.287-0.063 0.763-0.13 1.43zM124.15 102.7v0c-4 0-6.2 3.05-6.6 9.15v0h12.5v-1.65c0-2.4-0.507-4.25-1.52-5.55-1.02-1.3-2.48-1.95-4.38-1.95zM149.5 125.7v0c1.867 0 3.393-0.383 4.58-1.15 1.18-0.767 1.77-1.833 1.77-3.2v0c0-1.1-0.367-1.983-1.1-2.65-0.733-0.667-1.64-1.21-2.72-1.63-1.087-0.413-2.18-0.77-3.28-1.07v0c-1.367-0.433-2.683-0.943-3.95-1.53-1.267-0.58-2.3-1.387-3.1-2.42-0.8-1.033-1.2-2.4-1.2-4.1v0c0-2.4 0.877-4.327 2.63-5.78 1.747-1.447 4.187-2.17 7.32-2.17v0c2.667 0 4.777 0.557 6.33 1.67 1.547 1.12 2.32 2.647 2.32 4.58v0c0 1.033-0.233 1.857-0.7 2.47-0.467 0.62-1.133 0.93-2 0.93v0c-0.767 0-1.4-0.233-1.9-0.7-0.5-0.467-0.75-1.067-0.75-1.8v0c0-0.633 0.167-1.21 0.5-1.73 0.333-0.513 0.767-0.887 1.3-1.12v0c-0.5-0.7-1.14-1.21-1.92-1.53-0.787-0.313-1.797-0.47-3.03-0.47v0c-2 0-3.5 0.357-4.5 1.07-1 0.72-1.5 1.78-1.5 3.18v0c0 1 0.243 1.793 0.73 2.38 0.48 0.58 1.187 1.07 2.12 1.47 0.933 0.4 2.083 0.817 3.45 1.25v0c1.133 0.333 2.25 0.707 3.35 1.12 1.1 0.42 2.1 0.93 3 1.53 0.9 0.6 1.617 1.35 2.15 2.25 0.533 0.9 0.8 2.017 0.8 3.35v0c0 1.7-0.467 3.157-1.4 4.37-0.933 1.22-2.217 2.147-3.85 2.78-1.633 0.633-3.517 0.95-5.65 0.95v0c-2.933 0-5.3-0.6-7.1-1.8-1.8-1.2-2.7-2.817-2.7-4.85v0c0-1.067 0.243-1.91 0.73-2.53 0.48-0.613 1.17-0.92 2.07-0.92v0c0.8 0 1.477 0.233 2.03 0.7 0.547 0.467 0.82 1.083 0.82 1.85v0c0 0.633-0.173 1.233-0.52 1.8-0.353 0.567-0.78 0.983-1.28 1.25v0c0.433 0.633 1.21 1.157 2.33 1.57 1.113 0.42 2.387 0.63 3.82 0.63zM174.65 125.7v0c1.867 0 3.393-0.383 4.58-1.15 1.18-0.767 1.77-1.833 1.77-3.2v0c0-1.1-0.367-1.983-1.1-2.65-0.733-0.667-1.64-1.21-2.72-1.63-1.087-0.413-2.18-0.77-3.28-1.07v0c-1.367-0.433-2.683-0.943-3.95-1.53-1.267-0.58-2.3-1.387-3.1-2.42-0.8-1.033-1.2-2.4-1.2-4.1v0c0-2.4 0.877-4.327 2.63-5.78 1.747-1.447 4.187-2.17 7.32-2.17v0c2.667 0 4.777 0.557 6.33 1.67 1.547 1.12 2.32 2.647 2.32 4.58v0c0 1.033-0.233 1.857-0.7 2.47-0.467 0.62-1.133 0.93-2 0.93v0c-0.767 0-1.4-0.233-1.9-0.7-0.5-0.467-0.75-1.067-0.75-1.8v0c0-0.633 0.167-1.21 0.5-1.73 0.333-0.513 0.767-0.887 1.3-1.12v0c-0.5-0.7-1.14-1.21-1.92-1.53-0.787-0.313-1.797-0.47-3.03-0.47v0c-2 0-3.5 0.357-4.5 1.07-1 0.72-1.5 1.78-1.5 3.18v0c0 1 0.243 1.793 0.73 2.38 0.48 0.58 1.187 1.07 2.12 1.47 0.933 0.4 2.083 0.817 3.45 1.25v0c1.133 0.333 2.25 0.707 3.35 1.12 1.1 0.42 2.1 0.93 3 1.53 0.9 0.6 1.617 1.35 2.15 2.25 0.533 0.9 0.8 2.017 0.8 3.35v0c0 1.7-0.467 3.157-1.4 4.37-0.933 1.22-2.217 2.147-3.85 2.78-1.633 0.633-3.517 0.95-5.65 0.95v0c-2.933 0-5.3-0.6-7.1-1.8-1.8-1.2-2.7-2.817-2.7-4.85v0c0-1.067 0.243-1.91 0.73-2.53 0.48-0.613 1.17-0.92 2.07-0.92v0c0.8 0 1.477 0.233 2.03 0.7 0.547 0.467 0.82 1.083 0.82 1.85v0c0 0.633-0.173 1.233-0.52 1.8-0.353 0.567-0.78 0.983-1.28 1.25v0c0.433 0.633 1.21 1.157 2.33 1.57 1.113 0.42 2.387 0.63 3.82 0.63z" data-fill-palette-color="primary" fill="#6f605b" opacity="1"></path></g></svg></g></svg></g><g transform="matrix(1,0,0,1,0,209.6667923384)"><svg viewBox="0 0 196.355395386 20.499286753111107" height="20.499286753111107" width="196.355395386"><g transform="matrix(1,0,0,1,0,0)"><svg width="196.355395386" viewBox="1.9500000476837158 -34.900001525878906 417.1099853515625 43.55000305175781" height="20.499286753111107" data-palette-color="#f36527"><path d="M15.5 0.6Q8.85 0.6 5.4-3.83 1.95-8.25 1.95-17.15L1.95-17.15Q1.95-26.05 5.4-30.48 8.85-34.9 15.5-34.9L15.5-34.9Q21-34.9 24.35-31.58 27.7-28.25 27.7-21.8L27.7-21.8 22.55-21.8Q22.55-26 20.65-28.2 18.75-30.4 15.5-30.4L15.5-30.4Q7.2-30.4 7.2-18.4L7.2-18.4 7.2-15.9Q7.2-3.9 15.6-3.9L15.6-3.9Q18.9-3.9 20.83-6.08 22.75-8.25 22.75-12.45L22.75-12.45 27.7-12.45Q27.7-6 24.38-2.7 21.05 0.6 15.5 0.6L15.5 0.6ZM43.1 0.6Q38 0.6 34.75-1.98 31.5-4.55 31.5-9.8L31.5-9.8 31.55-10.85 36.75-10.85 36.7-9.85Q36.7-7 38.45-5.45 40.2-3.9 43.1-3.9L43.1-3.9Q46.3-3.9 47.97-5.28 49.65-6.65 49.65-9.1L49.65-9.1Q49.65-10.9 48.67-12.05 47.7-13.2 46.22-13.88 44.75-14.55 42.2-15.35L42.2-15.35Q39-16.4 37-17.4 35-18.4 33.6-20.38 32.2-22.35 32.2-25.55L32.2-25.55Q32.2-30.1 35.32-32.5 38.45-34.9 43.25-34.9L43.25-34.9Q48.05-34.9 51.1-32.45 54.15-30 54.15-25.1L54.15-25.1 54.15-24.5 48.95-24.5 48.95-25.15Q48.95-27.6 47.37-29 45.8-30.4 43.3-30.4L43.3-30.4Q40.65-30.4 39.05-29.25 37.45-28.1 37.45-25.95L37.45-25.95Q37.45-24.35 38.4-23.28 39.35-22.2 40.8-21.55 42.25-20.9 44.7-20.15L44.7-20.15Q47.95-19.1 49.97-18.1 52-17.1 53.45-15.15 54.9-13.2 54.9-10.05L54.9-10.05Q54.9-4.5 51.72-1.95 48.55 0.6 43.1 0.6L43.1 0.6ZM68.35 0.6Q63.65 0.6 61.1-2.18 58.55-4.95 58.55-9.7L58.55-9.7 58.55-10.25 63.4-10.25 63.4-9.55Q63.4-6.6 64.6-5.05 65.8-3.5 68.1-3.5L68.1-3.5Q70.4-3.5 71.72-5 73.05-6.5 73.05-9.5L73.05-9.5Q73.05-15.4 67.9-15.4L67.9-15.4 65.45-15.4 65.45-19.45 68-19.45Q69.9-19.45 71.17-20.95 72.45-22.45 72.45-25.25L72.45-25.25Q72.45-28.05 71.3-29.43 70.15-30.8 68.25-30.8L68.25-30.8Q66.25-30.8 65.12-29.35 64-27.9 64-25.05L64-25.05 64-24.45 59.15-24.45 59.15-25.5Q59.15-28.3 60.3-30.43 61.45-32.55 63.5-33.73 65.55-34.9 68.2-34.9L68.2-34.9Q72.35-34.9 74.82-32.45 77.3-30 77.3-25.5L77.3-25.5Q77.3-22.65 76.12-20.83 74.95-19 72.85-17.8L72.85-17.8 72.85-17.6Q75.15-16.75 76.52-14.6 77.9-12.45 77.9-9.2L77.9-9.2Q77.9-4.7 75.25-2.05 72.6 0.6 68.35 0.6L68.35 0.6ZM91.14 0.6Q87.99 0.6 85.89-0.98 83.79-2.55 82.69-6.45 81.59-10.35 81.59-17.15L81.59-17.15Q81.59-23.95 82.69-27.85 83.79-31.75 85.89-33.33 87.99-34.9 91.14-34.9L91.14-34.9Q94.29-34.9 96.37-33.3 98.44-31.7 99.57-27.83 100.69-23.95 100.69-17.15L100.69-17.15Q100.69-10.35 99.57-6.48 98.44-2.6 96.37-1 94.29 0.6 91.14 0.6L91.14 0.6ZM91.14-3.5Q93.79-3.5 94.82-6.5 95.84-9.5 95.84-15.4L95.84-15.4 95.84-18.9Q95.84-24.8 94.82-27.8 93.79-30.8 91.14-30.8L91.14-30.8Q88.49-30.8 87.47-27.8 86.44-24.8 86.44-18.9L86.44-18.9 86.44-15.4Q86.44-9.5 87.47-6.5 88.49-3.5 91.14-3.5L91.14-3.5ZM116.34 0L116.34-8.25 103.34-8.25 103.34-12.3Q106.04-17.1 108.37-23.08 110.69-29.05 112.19-34.9L112.19-34.9 116.89-34.9Q116.04-30.7 114.27-26.05 112.49-21.4 110.62-17.65 108.74-13.9 107.64-12.3L107.64-12.3 116.34-12.3 116.34-22.15Q117.74-25.45 118.79-29.8L118.79-29.8 121.04-29.8 121.04-12.3 124.54-12.3 124.54-8.25 121.04-8.25 121.04 0 116.34 0ZM136.74 0.6Q132.04 0.6 129.49-2.18 126.94-4.95 126.94-9.7L126.94-9.7 126.94-10.25 131.79-10.25 131.79-9.55Q131.79-6.6 132.99-5.05 134.19-3.5 136.49-3.5L136.49-3.5Q138.79-3.5 140.11-5 141.44-6.5 141.44-9.5L141.44-9.5Q141.44-15.4 136.29-15.4L136.29-15.4 133.84-15.4 133.84-19.45 136.39-19.45Q138.29-19.45 139.56-20.95 140.84-22.45 140.84-25.25L140.84-25.25Q140.84-28.05 139.69-29.43 138.54-30.8 136.64-30.8L136.64-30.8Q134.64-30.8 133.51-29.35 132.39-27.9 132.39-25.05L132.39-25.05 132.39-24.45 127.54-24.45 127.54-25.5Q127.54-28.3 128.69-30.43 129.84-32.55 131.89-33.73 133.94-34.9 136.59-34.9L136.59-34.9Q140.74-34.9 143.21-32.45 145.69-30 145.69-25.5L145.69-25.5Q145.69-22.65 144.51-20.83 143.34-19 141.24-17.8L141.24-17.8 141.24-17.6Q143.54-16.75 144.91-14.6 146.29-12.45 146.29-9.2L146.29-9.2Q146.29-4.7 143.64-2.05 140.99 0.6 136.74 0.6L136.74 0.6ZM160.13-10.9L160.13-16.1 172.53-16.1 172.53-10.9 160.13-10.9ZM187.93 0L187.93-34.3 198.73-34.3Q205.03-34.3 208.5-30.05 211.98-25.8 211.98-17.65L211.98-17.65Q211.98-9 208.5-4.5 205.03 0 198.73 0L198.73 0 187.93 0ZM192.93-4.55L198.28-4.55Q202.28-4.55 204.5-7.55 206.73-10.55 206.73-16.4L206.73-16.4 206.73-18.9Q206.73-24.25 204.5-27 202.28-29.75 198.28-29.75L198.28-29.75 192.93-29.75 192.93-4.55ZM217.33 0L217.33-34.3 230.88-34.3Q233.48-34.3 235.53-33.25 237.58-32.2 238.75-30.28 239.93-28.35 239.93-25.85L239.93-25.85Q239.93-23 238.45-20.9 236.98-18.8 234.68-18L234.68-18 234.68-17.8Q237.33-17 239.03-14.68 240.73-12.35 240.73-9.15L240.73-9.15Q240.73-6.35 239.4-4.28 238.08-2.2 235.83-1.1 233.58 0 230.88 0L230.88 0 217.33 0ZM222.38-19.8L229.48-19.8Q231.83-19.8 233.25-21.28 234.68-22.75 234.68-24.85L234.68-24.85Q234.68-27.25 233.38-28.5 232.08-29.75 229.78-29.75L229.78-29.75 222.38-29.75 222.38-19.8ZM222.38-4.55L230.18-4.55Q232.53-4.55 234-5.93 235.48-7.3 235.48-9.8L235.48-9.8Q235.48-12.1 233.95-13.7 232.43-15.3 229.88-15.3L229.88-15.3 222.38-15.3 222.38-4.55ZM255.72 0.6Q250.62 0.6 247.37-1.98 244.12-4.55 244.12-9.8L244.12-9.8 244.17-10.85 249.37-10.85 249.32-9.85Q249.32-7 251.07-5.45 252.82-3.9 255.72-3.9L255.72-3.9Q258.92-3.9 260.6-5.28 262.27-6.65 262.27-9.1L262.27-9.1Q262.27-10.9 261.3-12.05 260.32-13.2 258.85-13.88 257.37-14.55 254.82-15.35L254.82-15.35Q251.62-16.4 249.62-17.4 247.62-18.4 246.22-20.38 244.82-22.35 244.82-25.55L244.82-25.55Q244.82-30.1 247.95-32.5 251.07-34.9 255.87-34.9L255.87-34.9Q260.67-34.9 263.72-32.45 266.77-30 266.77-25.1L266.77-25.1 266.77-24.5 261.57-24.5 261.57-25.15Q261.57-27.6 260-29 258.42-30.4 255.92-30.4L255.92-30.4Q253.27-30.4 251.67-29.25 250.07-28.1 250.07-25.95L250.07-25.95Q250.07-24.35 251.02-23.28 251.97-22.2 253.42-21.55 254.87-20.9 257.32-20.15L257.32-20.15Q260.57-19.1 262.6-18.1 264.62-17.1 266.07-15.15 267.52-13.2 267.52-10.05L267.52-10.05Q267.52-4.5 264.35-1.95 261.17 0.6 255.72 0.6L255.72 0.6ZM296.17-13.75L296.17-18.1 309.82-18.1 309.82 0 306.57 0 305.57-3.8Q302.47 0.6 296.62 0.6L296.62 0.6Q290.07 0.6 286.62-3.83 283.17-8.25 283.17-17.15L283.17-17.15Q283.17-25.95 286.82-30.43 290.47-34.9 297.17-34.9L297.17-34.9Q300.77-34.9 303.64-33.5 306.52-32.1 308.17-29.3 309.82-26.5 309.82-22.5L309.82-22.5 304.67-22.5Q304.67-26.4 302.62-28.4 300.57-30.4 297.12-30.4L297.12-30.4Q292.92-30.4 290.67-27.35 288.42-24.3 288.42-18.4L288.42-18.4 288.42-15.9Q288.42-9.95 290.57-6.93 292.72-3.9 296.97-3.9L296.97-3.9Q300.82-3.9 302.74-6.25 304.67-8.6 304.67-13.2L304.67-13.2 304.67-13.75 296.17-13.75ZM315.76 0L315.76-26.3 319.47-26.3 320.06-22.7 320.37-22.7Q321.76-26.9 324.87-26.9L324.87-26.9Q326.06-26.9 326.97-26.5L326.97-26.5 326.97-21.75 325.37-21.75Q323.22-21.75 321.84-20.3 320.47-18.85 320.47-15.6L320.47-15.6 320.47 0 315.76 0ZM339.01 0.6Q334.16 0.6 331.71-2.78 329.26-6.15 329.26-13.15L329.26-13.15Q329.26-20.15 331.71-23.53 334.16-26.9 339.01-26.9L339.01-26.9Q343.91-26.9 346.34-23.53 348.76-20.15 348.76-13.15L348.76-13.15Q348.76-6.15 346.34-2.78 343.91 0.6 339.01 0.6L339.01 0.6ZM339.01-3.5Q343.86-3.5 343.86-12.2L343.86-12.2 343.86-14.1Q343.86-22.8 339.01-22.8L339.01-22.8Q336.56-22.8 335.39-20.63 334.21-18.45 334.21-14.1L334.21-14.1 334.21-12.2Q334.21-7.85 335.39-5.68 336.56-3.5 339.01-3.5L339.01-3.5ZM360.36 0.6Q353.66 0.6 353.66-7.5L353.66-7.5 353.66-26.3 358.36-26.3 358.36-8.25Q358.36-5.7 359.28-4.65 360.21-3.6 362.01-3.6L362.01-3.6Q363.96-3.6 365.31-5.43 366.66-7.25 366.66-10.15L366.66-10.15 366.66-26.3 371.36-26.3 371.36 0 367.66 0 367.06-3.1 366.76-3.1Q365.71-1.3 364.06-0.35 362.41 0.6 360.36 0.6L360.36 0.6ZM377.16 8.65L377.16-26.3 380.86-26.3 381.46-23.2 381.71-23.2Q382.66-25 384.16-25.95 385.66-26.9 387.51-26.9L387.51-26.9Q391.41-26.9 393.58-23.5 395.76-20.1 395.76-13.1L395.76-13.1Q395.76-6.25 393.56-2.83 391.36 0.6 387.81 0.6L387.81 0.6Q385.86 0.6 384.33-0.23 382.81-1.05 382.11-2.45L382.11-2.45 381.86-2.45 381.86 8.65 377.16 8.65ZM386.36-3.6Q388.66-3.6 389.76-5.68 390.86-7.75 390.86-12.2L390.86-12.2 390.86-14.1Q390.86-18.55 389.76-20.63 388.66-22.7 386.36-22.7L386.36-22.7Q381.86-22.7 381.86-14.1L381.86-14.1 381.86-12.25Q381.86-3.6 386.36-3.6L386.36-3.6ZM403.4 0Q403.4-7.85 406.33-15.55 409.25-23.25 413.5-29.65L413.5-29.65 399.25-29.65 399.25-34.3 419.06-34.3 419.06-31.2Q414.65-24.6 411.63-17.25 408.61-9.9 408.61-2.55L408.61-2.55Q408.61-1.2 408.65 0L408.65 0 403.4 0Z" opacity="1" transform="matrix(1,0,0,1,0,0)" fill="#f36527" class="undefined-text-1" data-fill-palette-color="secondary" id="text-1"></path></svg></g></svg></g></svg></g></svg></g><g transform="matrix(1,0,0,1,0,13.32122229051096)"><svg viewBox="0 0 206.68988987999998 204.6744649059467" height="204.6744649059467" width="206.68988987999998"><g><svg xmlns="http://www.w3.org/2000/svg" xmlns:xlink="http://www.w3.org/1999/xlink" version="1.1" x="0" y="0" viewBox="4.932000160217285 4 91.06800079345703 90.18000030517578" enable-background="new 0 0 100 100" xml:space="preserve" height="204.6744649059467" width="206.68988987999998" class="icon-icon-0" data-fill-palette-color="accent" id="icon-0"><path fill="#f36527" d="M91.329 87.359V35.071h4.491V28.25h-7.259L50.016 4l-37.53 24.25H4.932v6.821h4.491v52.289H5.47v6.82h3.953 81.907H96v-6.82H91.329zM50.018 10.062L80.013 28.25H20.917L50.018 10.062zM84.86 91.147H16.605v-3.215h8.443v-2.762h8.623v-3.116h34.485v3.116h8.981v2.762h7.723V91.147zM15.887 85.086V42.27h7.186v42.816H15.887zM36.721 52.879v-3.031h28.021v3.031H36.721zM64.563 55.152v23.872H51.63V55.152H64.563zM49.834 55.152v23.872H36.902V55.152H49.834zM85.219 85.464h-6.465V42.27h6.465V85.464zM87.555 39.618H12.833v-4.547h74.722V39.618z" data-fill-palette-color="accent"></path><g fill="#f36527" data-fill-palette-color="accent"><path fill="#f36527" d="M49.592 25.344c-1.709-0.101-3-0.804-3.838-1.76l0.822-1.055c0.653 0.737 1.675 1.424 3.016 1.575v-4.088c-1.709-0.47-3.486-1.039-3.486-3.101 0-1.742 1.458-2.966 3.486-3.083v-1.542h1.021v1.559c1.392 0.134 2.48 0.67 3.302 1.524l-0.838 1.022c-0.671-0.72-1.524-1.139-2.464-1.273v3.636c1.727 0.486 3.553 1.139 3.553 3.317 0 1.525-0.972 3.067-3.553 3.268v1.491h-1.021V25.344zM49.592 18.49v-3.418c-1.208 0.083-2.045 0.771-2.045 1.76C47.547 17.77 48.452 18.155 49.592 18.49zM50.613 20.3v3.804c1.592-0.168 2.111-1.123 2.111-1.91C52.725 21.105 51.787 20.652 50.613 20.3z" data-fill-palette-color="accent"></path></g></svg></g></svg></g></svg></g></svg><rect width="395.52" height="161.32754464185405" fill="none" stroke="none" visibility="hidden"></rect></g></svg></g></svg>